<svg xmlns="http://www.w3.org/2000/svg" xmlns:xlink="http://www.w3.org/1999/xlink"><symbol id="icon-arrow-tablet"><path d="M0 8.5h36m0 0L26.73 1M36 8.5 26.73 16" stroke="#A87B62"/></symbol><symbol id="icon-arrow"><path d="M0 5.5h29m0 0L23.514 1M29 5.5 23.514 10" stroke="#A87B62"/></symbol><symbol id="icon-burger"><path d="M0 1h25M0 9h25M0 17h25" stroke-width="2"/></symbol><symbol id="icon-cart"><path d="M14 5a4 4 0 1 1-8 0M1 1h18v16H1V1Z" stroke-width="2" stroke-linecap="round" stroke-linejoin="round"/></symbol><symbol id="icon-cross"><circle cx="16" cy="16" r="16" fill="#1D1613"/><path d="M16 14.445 21.445 9 23 10.555 17.555 16 23 21.445 21.445 23 16 17.555 10.555 23 9 21.445 14.445 16 9 10.555 10.555 9 16 14.445Z" fill="#fff"/></symbol><symbol id="icon-facebook-mobile"><path d="M8 12.075h2.857L12 7.875H8v-2.1c0-1.082 0-2.1 2.286-2.1H12V.147C11.627.102 10.22 0 8.735 0 5.632 0 3.429 1.74 3.429 4.935v2.94H0v4.2h3.429V21H8v-8.925Z" fill="#fff"/></symbol><symbol id="icon-facebook"><path d="M5.333 8.625h1.905l.762-3H5.333v-1.5c0-.772 0-1.5 1.524-1.5H8V.105A21.797 21.797 0 0 0 5.823 0C3.755 0 2.286 1.243 2.286 3.525v2.1H0v3h2.286V15h3.047V8.625Z" fill="#fff"/></symbol><symbol id="icon-instagram-mobile"><path d="M10 0c2.717 0 3.056.01 4.122.063 1.065.053 1.79.228 2.428.488.66.267 1.216.628 1.772 1.21.509.526.902 1.16 1.153 1.862.247.668.415 1.43.465 2.549.047 1.12.06 1.475.06 4.328s-.01 3.209-.06 4.328c-.05 1.118-.218 1.88-.465 2.55a5.16 5.16 0 0 1-1.153 1.86c-.5.534-1.105.947-1.772 1.21-.637.26-1.363.436-2.428.489-1.066.05-1.405.063-4.122.063-2.717 0-3.056-.01-4.122-.063-1.065-.053-1.79-.229-2.428-.488a4.873 4.873 0 0 1-1.772-1.21 5.182 5.182 0 0 1-1.153-1.861c-.248-.67-.415-1.432-.465-2.55C.013 13.708 0 13.353 0 10.5s.01-3.209.06-4.328c.05-1.12.217-1.88.465-2.55a5.156 5.156 0 0 1 1.153-1.86A4.88 4.88 0 0 1 3.45.552C4.088.29 4.812.114 5.878.062 6.944.013 7.283 0 10 0Zm0 5.25a4.882 4.882 0 0 0-3.536 1.538A5.386 5.386 0 0 0 5 10.5c0 1.392.527 2.728 1.464 3.712A4.882 4.882 0 0 0 10 15.75a4.882 4.882 0 0 0 3.536-1.538A5.386 5.386 0 0 0 15 10.5a5.386 5.386 0 0 0-1.464-3.712A4.882 4.882 0 0 0 10 5.25Zm6.5-.263c0-.348-.132-.681-.366-.928a1.22 1.22 0 0 0-.884-.384c-.332 0-.65.138-.884.384-.234.247-.366.58-.366.928 0 .349.132.682.366.929.235.246.553.384.884.384.332 0 .65-.138.884-.384.234-.247.366-.58.366-.929ZM10 7.35a2.93 2.93 0 0 1 2.121.923c.563.59.879 1.392.879 2.227s-.316 1.637-.879 2.227A2.93 2.93 0 0 1 10 13.65a2.93 2.93 0 0 1-2.121-.923A3.232 3.232 0 0 1 7 10.5c0-.835.316-1.637.879-2.227A2.93 2.93 0 0 1 10 7.35Z" fill="#fff"/></symbol><symbol id="icon-instagram"><path d="M7.5 0c2.038 0 2.292.007 3.091.045.8.038 1.343.163 1.822.349.495.19.912.448 1.329.864.38.375.676.829.864 1.33.185.477.312 1.022.349 1.82.035.8.045 1.054.045 3.092 0 2.038-.008 2.292-.045 3.091-.037.8-.164 1.343-.349 1.822-.188.5-.483.954-.864 1.329a3.687 3.687 0 0 1-1.33.864c-.477.185-1.022.312-1.82.349-.8.035-1.054.045-3.092.045-2.038 0-2.292-.008-3.091-.045-.8-.037-1.343-.164-1.821-.349a3.668 3.668 0 0 1-1.33-.864 3.678 3.678 0 0 1-.864-1.33c-.186-.477-.311-1.022-.349-1.82C.01 9.791 0 9.537 0 7.5c0-2.038.007-2.292.045-3.091.038-.8.163-1.343.349-1.821.187-.501.483-.955.864-1.33a3.673 3.673 0 0 1 1.33-.864C3.066.208 3.608.083 4.407.045 5.208.01 5.463 0 7.5 0Zm0 3.75a3.75 3.75 0 1 0 0 7.5 3.75 3.75 0 0 0 0-7.5Zm4.875-.188a.938.938 0 1 0-1.875 0 .938.938 0 0 0 1.875 0ZM7.5 5.25a2.25 2.25 0 1 1 0 4.5 2.25 2.25 0 0 1 0-4.5Z" fill="#fff"/></symbol><symbol id="icon-log-cross"><path d="M7 5.445 12.445 0 14 1.555 8.555 7 14 12.445 12.445 14 7 8.555 1.555 14 0 12.445 5.445 7 0 1.555 1.555 0 7 5.445Z" fill="#1D1613"/></symbol><symbol id="icon-logo"><path fill-rule="evenodd" clip-rule="evenodd" d="M10.126 10.12 33 .643l22.874 9.475L65.35 33l-9.477 22.88L33 65.357 10.126 55.88.65 33l9.477-22.88ZM33 0l23.334 9.665L66 33l-9.666 23.334L33 66 9.665 56.334 0 33 9.665 9.665 33 0Zm-4.433 26.417c-.619-.129-1.382-.193-2.29-.193-1.483 0-2.822.285-4.017.856-1.18.571-2.11 1.377-2.786 2.419-.677 1.027-1.016 2.212-1.016 3.553 0 1.385.332 2.612.994 3.682.662 1.07 1.584 1.905 2.765 2.505 1.195.585 2.549.877 4.06.877.85 0 1.599-.071 2.247-.214.662-.143 1.368-.392 2.117-.75a.633.633 0 0 0 .173-.149c.028-.043.05-.15.064-.321l.216-2.355c0-.042-.05-.064-.15-.064-.073 0-.109.014-.109.043-.389 1.17-.95 2.04-1.685 2.611-.734.571-1.692.857-2.872.857-1.11 0-2.139-.3-3.09-.9-.935-.599-1.684-1.412-2.246-2.44-.547-1.041-.82-2.183-.82-3.424 0-1.3.252-2.434.756-3.404.504-.985 1.216-1.74 2.138-2.269.922-.528 1.987-.792 3.197-.792 2.304 0 3.787 1.192 4.45 3.575.014.043.057.064.129.064.086-.014.13-.043.13-.086l-.26-2.547a2.893 2.893 0 0 0-.064-.32c-.015-.044-.072-.094-.173-.15a7.457 7.457 0 0 0-1.858-.664Zm19.3 13.292c0-.085-.02-.128-.064-.128-.547 0-.95-.036-1.21-.107-.259-.071-.439-.207-.54-.407-.086-.214-.13-.535-.13-.963v-9.91c0-.429.044-.743.13-.942.101-.2.281-.336.54-.407.26-.086.663-.129 1.21-.129.043 0 .065-.043.065-.128 0-.086-.022-.129-.065-.129l-1.058.022c-.605.028-1.102.043-1.49.043-.433 0-.966-.015-1.6-.043l-1.014-.022c-.044 0-.065.043-.065.129 0 .085.021.128.065.128.561 0 .972.043 1.23.129.26.085.433.235.52.45.1.2.15.513.15.941v4.41h-8.294v-4.41c0-.428.043-.742.13-.942.1-.214.28-.364.54-.45.273-.085.684-.128 1.23-.128.03 0 .044-.043.044-.128 0-.086-.014-.129-.043-.129l-1.037.022c-.634.028-1.16.043-1.577.043-.36 0-.842-.015-1.447-.043l-1.102-.022c-.028 0-.043.043-.043.129 0 .085.015.128.043.128.548 0 .95.043 1.21.129.26.071.432.207.518.407.101.2.152.513.152.941v9.911c0 .428-.05.75-.152.963-.086.2-.266.336-.54.407-.259.071-.662.107-1.21.107-.028 0-.042.043-.042.128 0 .086.014.129.043.129.46 0 .82-.007 1.08-.022l1.49-.021 1.555.021c.26.015.612.022 1.059.022.029 0 .043-.043.043-.129 0-.085-.014-.128-.043-.128-.562 0-.972-.036-1.231-.107-.26-.071-.44-.207-.54-.407-.087-.214-.13-.535-.13-.963v-5.009h8.294v5.009c0 .428-.05.75-.15.963-.087.2-.26.336-.52.407-.258.071-.669.107-1.23.107-.044 0-.065.043-.065.128 0 .086.021.129.065.129.432 0 .77-.007 1.015-.022l1.598-.021 1.49.021c.26.015.613.022 1.059.022.043 0 .065-.043.065-.129Z"/></symbol><symbol id="icon-mail-arrow"><path d="M0 5.5h29m0 0L23.514 1M29 5.5 23.514 10" stroke="#fff"/></symbol><symbol id="icon-pinterest-mobile"><path d="M11.364.098a9.623 9.623 0 0 0-6.843 1.619c-2.02 1.39-3.493 3.5-4.147 5.94a10.986 10.986 0 0 0 .588 7.341c1.034 2.292 2.822 4.114 5.035 5.13a8.543 8.543 0 0 1 .163-2.408c.185-.881 1.296-5.736 1.296-5.736a4.096 4.096 0 0 1-.324-1.656c0-1.56.857-2.723 1.923-2.723a1.28 1.28 0 0 1 .556.119c.176.08.332.2.46.35.127.15.222.328.278.52.056.193.072.395.047.595 0 .945-.577 2.375-.88 3.717a1.7 1.7 0 0 0-.01.751c.052.248.16.48.312.676.154.196.349.352.57.455.22.103.462.15.703.137 1.898 0 3.17-2.553 3.17-5.566 0-2.31-1.457-4.04-4.142-4.04a4.542 4.542 0 0 0-1.884.326c-.6.242-1.148.61-1.609 1.08a5.002 5.002 0 0 0-1.073 1.659 5.202 5.202 0 0 0-.364 1.968 3.211 3.211 0 0 0 .648 2.069.505.505 0 0 1 .174.262.528.528 0 0 1-.012.32c-.046.192-.162.653-.208.822a.382.382 0 0 1-.065.159.36.36 0 0 1-.126.11.34.34 0 0 1-.319-.002c-1.383-.582-2.035-2.18-2.035-4.007 0-2.989 2.383-6.567 7.152-6.567 3.796 0 6.32 2.916 6.32 6.034 0 4.104-2.177 7.19-5.394 7.19a2.748 2.748 0 0 1-1.386-.324 2.91 2.91 0 0 1-1.067-.984s-.578 2.432-.692 2.892a8.618 8.618 0 0 1-1.019 2.237 9.236 9.236 0 0 0 2.846.437 9.572 9.572 0 0 0 3.827-.797 9.967 9.967 0 0 0 3.245-2.277 10.537 10.537 0 0 0 2.165-3.409c.502-1.275.759-2.64.757-4.02-.001-2.536-.876-4.985-2.463-6.896C15.95 1.689 13.758.446 11.367.099l-.003-.001Z" fill="#fff"/></symbol><symbol id="icon-pinterest"><path d="M8.525.07a7.502 7.502 0 0 0-4.026 14.307 5.818 5.818 0 0 1 .122-1.72c.139-.629.972-4.097.972-4.097a2.804 2.804 0 0 1-.243-1.183c0-1.113.643-1.944 1.442-1.944A1 1 0 0 1 7.8 6.563c0 .676-.434 1.697-.66 2.656a1.158 1.158 0 0 0 1.18 1.442c1.424 0 2.378-1.823 2.378-3.976 0-1.65-1.092-2.886-3.107-2.886a3.56 3.56 0 0 0-3.697 3.596 2.22 2.22 0 0 0 .486 1.477.36.36 0 0 1 .121.416c-.034.138-.121.467-.156.588a.265.265 0 0 1-.382.19c-1.038-.415-1.527-1.558-1.527-2.862 0-2.135 1.788-4.691 5.365-4.691 2.847 0 4.74 2.083 4.74 4.31 0 2.932-1.633 5.136-4.045 5.136a2.145 2.145 0 0 1-1.84-.934s-.434 1.736-.52 2.065a6.021 6.021 0 0 1-.764 1.598c.692.21 1.411.315 2.134.312a7.493 7.493 0 0 0 7.497-7.502A7.502 7.502 0 0 0 8.526.071L8.525.07Z" fill="#fff"/></symbol><symbol id="icon-search"><path d="M11.048 10.074 14 13.024l-.975.976-2.951-2.952A6.205 6.205 0 0 1 0 6.202 6.205 6.205 0 0 1 6.203 0a6.205 6.205 0 0 1 4.845 10.074Zm-1.382-.512a4.808 4.808 0 0 0 1.36-3.36 4.823 4.823 0 0 0-4.823-4.824 4.822 4.822 0 0 0-4.825 4.825 4.823 4.823 0 0 0 4.825 4.824 4.808 4.808 0 0 0 3.36-1.361l.103-.104Z"/></symbol><symbol id="icon-tab-arrow"><path d="m1 1 7.5 8L16 1" stroke="#A87B62"/></symbol><symbol id="icon-twitter-mobile"><path d="M19.999 2.137a7.615 7.615 0 0 1-2.357.714c.858-.567 1.5-1.46 1.806-2.513a7.737 7.737 0 0 1-2.606 1.103C16.224.709 15.406.224 14.513.06a3.761 3.761 0 0 0-2.605.477c-.798.472-1.432 1.223-1.804 2.135a4.99 4.99 0 0 0-.254 2.91 10.782 10.782 0 0 1-4.685-1.378A11.96 11.96 0 0 1 1.392.837 4.904 4.904 0 0 0 .837 3.12c0 1.575.724 2.966 1.825 3.78a3.793 3.793 0 0 1-1.858-.568v.057c0 1.049.328 2.065.928 2.877.6.812 1.435 1.369 2.363 1.577a3.744 3.744 0 0 1-1.854.078 4.56 4.56 0 0 0 1.46 2.258c.687.566 1.517.88 2.373.897a7.967 7.967 0 0 1-2.868 1.61A7.471 7.471 0 0 1 0 15.958C1.876 17.293 4.06 18.002 6.29 18c7.547 0 11.675-6.922 11.675-12.924 0-.196-.005-.393-.013-.587A8.884 8.884 0 0 0 20 2.138l-.001-.001Z" fill="#fff"/></symbol><symbol id="icon-twitter"><path d="M15 1.543a5.875 5.875 0 0 1-1.768.516A3.263 3.263 0 0 0 14.586.244a5.925 5.925 0 0 1-1.955.796 3.025 3.025 0 0 0-1.746-.996 2.913 2.913 0 0 0-1.954.344 3.206 3.206 0 0 0-1.353 1.543 3.48 3.48 0 0 0-.19 2.101 8.318 8.318 0 0 1-3.514-.995A8.868 8.868 0 0 1 1.044.604c-.273.501-.417 1.07-.416 1.65 0 1.137.543 2.142 1.368 2.73a2.924 2.924 0 0 1-1.393-.41v.04c0 .758.246 1.492.696 2.079.45.586 1.076.988 1.773 1.139-.454.13-.93.15-1.391.056.196.652.579 1.222 1.094 1.631a2.958 2.958 0 0 0 1.78.648c-.638.534-1.369.93-2.15 1.162-.782.233-1.6.3-2.405.196A8.318 8.318 0 0 0 4.717 13c5.661 0 8.757-4.999 8.757-9.334 0-.141-.004-.284-.01-.424A6.496 6.496 0 0 0 15 1.544Z" fill="#fff"/></symbol></svg>